<svg version="1.0" xmlns="http://www.w3.org/2000/svg"
 width="295.000000pt" height="174.000000pt" viewBox="0 0 295.000000 174.000000"
 preserveAspectRatio="xMidYMid meet">

<g transform="translate(0.000000,174.000000) scale(0.100000,-0.100000)"
fill="#0000001e" stroke="none">
<path d="M365 789 c-106 -20 -225 -67 -322 -128 l-43 -26 0 -297 c0 -285 1
-299 20 -318 20 -20 33 -20 1455 -20 1422 0 1435 0 1455 20 18 18 20 33 20
140 0 66 -1 120 -2 120 -2 0 -46 -10 -98 -21 -123 -27 -404 -36 -562 -20 -342
37 -643 135 -931 305 -200 118 -433 210 -612 240 -98 17 -299 20 -380 5z"/>
</g>
</svg>
